<?xml version="1.0" standalone="no"?>
<svg xmlns:xlink="http://www.w3.org/1999/xlink" id="wave" style="transform:rotate(0deg); transition: 0.3s" viewBox="0 0 1440 170" version="1.1" xmlns="http://www.w3.org/2000/svg"><defs><linearGradient id="sw-gradient-0" x1="0" x2="0" y1="1" y2="0"><stop stop-color="rgba(255, 255, 255, 1)" offset="0%"/><stop stop-color="rgba(255, 255, 255, 1)" offset="100%"/></linearGradient></defs><path style="transform:translate(0, 0px); opacity:1" fill="url(#sw-gradient-0)" d="M0,68L48,62.3C96,57,192,45,288,34C384,23,480,11,576,25.5C672,40,768,79,864,87.8C960,96,1056,74,1152,65.2C1248,57,1344,62,1440,68C1536,74,1632,79,1728,93.5C1824,108,1920,130,2016,136C2112,142,2208,130,2304,110.5C2400,91,2496,62,2592,65.2C2688,68,2784,102,2880,119C2976,136,3072,136,3168,133.2C3264,130,3360,125,3456,127.5C3552,130,3648,142,3744,138.8C3840,136,3936,119,4032,96.3C4128,74,4224,45,4320,53.8C4416,62,4512,108,4608,127.5C4704,147,4800,142,4896,141.7C4992,142,5088,147,5184,136C5280,125,5376,96,5472,90.7C5568,85,5664,102,5760,99.2C5856,96,5952,74,6048,79.3C6144,85,6240,119,6336,116.2C6432,113,6528,74,6624,73.7C6720,74,6816,113,6864,133.2L6912,153L6912,170L6864,170C6816,170,6720,170,6624,170C6528,170,6432,170,6336,170C6240,170,6144,170,6048,170C5952,170,5856,170,5760,170C5664,170,5568,170,5472,170C5376,170,5280,170,5184,170C5088,170,4992,170,4896,170C4800,170,4704,170,4608,170C4512,170,4416,170,4320,170C4224,170,4128,170,4032,170C3936,170,3840,170,3744,170C3648,170,3552,170,3456,170C3360,170,3264,170,3168,170C3072,170,2976,170,2880,170C2784,170,2688,170,2592,170C2496,170,2400,170,2304,170C2208,170,2112,170,2016,170C1920,170,1824,170,1728,170C1632,170,1536,170,1440,170C1344,170,1248,170,1152,170C1056,170,960,170,864,170C768,170,672,170,576,170C480,170,384,170,288,170C192,170,96,170,48,170L0,170Z"/></svg>