<svg xmlns="http://www.w3.org/2000/svg" xmlns:xlink="http://www.w3.org/1999/xlink" width="500" zoomAndPan="magnify" viewBox="0 0 375 374.999991" height="500" preserveAspectRatio="xMidYMid meet" version="1.0"><defs><clipPath id="53f7003acf"><path d="M 28.410156 37.5 L 346.410156 37.5 L 346.410156 353 L 28.410156 353 Z M 28.410156 37.5 " clip-rule="nonzero"/></clipPath></defs><g clip-path="url(#53f7003acf)"><path fill="#ff914d" d="M 187.441406 37.640625 C 275.273438 37.640625 346.472656 108.839844 346.472656 196.671875 C 346.472656 273.957031 291.351562 338.371094 218.253906 352.71875 C 217.667969 335.105469 218.03125 323.578125 219.121094 320.871094 C 222.945312 310.742188 226.210938 302.84375 228.945312 295.335938 C 233.914062 281.742188 255.515625 227.207031 239.300781 211.9375 C 237.539062 210.292969 234.21875 211.15625 231.457031 212.191406 C 234.664062 196.503906 229.140625 193.101562 222.691406 191.957031 C 215.964844 190.785156 209.433594 207.082031 207.453125 203.539062 C 204.800781 199.769531 210.636719 175.574219 217.363281 151.652344 C 224.058594 127.734375 240.472656 87.179688 227.242188 85.421875 C 213.984375 83.636719 199.75 120.003906 192.828125 153.019531 C 185.90625 186.039062 180.378906 195.332031 176.417969 194.550781 C 168.714844 192.375 157.046875 155.394531 149.929688 115.84375 C 142.8125 76.324219 125.230469 84.027344 127.796875 100.242188 C 129.195312 139.792969 150.320312 202.839844 148.5625 221.625 C 141.25 259.191406 139.855469 270.242188 143.425781 320.871094 C 143.984375 329.160156 144.710938 339.183594 145.464844 350.09375 C 78.007812 331.675781 28.410156 269.964844 28.410156 196.671875 C 28.410156 108.839844 99.609375 37.640625 187.441406 37.640625 Z M 187.441406 37.640625 " fill-opacity="1" fill-rule="evenodd"/></g></svg>